<svg id="Layer_1" data-name="Layer 1" xmlns="http://www.w3.org/2000/svg" viewBox="0 0 367 327"><defs><style>.cls-1{fill:#5076b2;}.cls-2{fill:#d8d8d8;}.cls-3{fill:#fff;}</style></defs><path class="cls-1" d="M288,231.32a.63.63,0,0,1-.22,0L270.6,223a111.86,111.86,0,0,0-75.69-7.75l-14.79,3.69-.12,0a.5.5,0,0,1-.5-.5V101.08l16.08-5.46a185.06,185.06,0,0,1,79.11-8.75l13.36,1.43a.5.5,0,0,1,.45.5v142A.5.5,0,0,1,288,231.32Z"/><path class="cls-2" d="M255,87.32a184.79,184.79,0,0,1,19.54,1L287,89.7V229.22l-15.74-7.59a113.42,113.42,0,0,0-76.71-7.86L181,217.16v-115L196.06,97A183.14,183.14,0,0,1,255,87.32m0-3A186.34,186.34,0,0,0,195.1,94.2L178,100V218.44a2,2,0,0,0,2,2,2.12,2.12,0,0,0,.49-.06l14.79-3.7A110.41,110.41,0,0,1,270,224.33l17.18,8.29a2.12,2.12,0,0,0,.87.2,2,2,0,0,0,2-2V88.8a2,2,0,0,0-1.79-2l-13.36-1.43A186,186,0,0,0,255,84.32Z"/><path class="cls-1" d="M70.3,231.32a.51.51,0,0,1-.35-.15.45.45,0,0,1-.15-.35V88.8a.5.5,0,0,1,.45-.5l13.36-1.43a185.06,185.06,0,0,1,79.11,8.75l16.08,5.46V218.44a.5.5,0,0,1-.5.5l-.12,0-14.79-3.69A111.86,111.86,0,0,0,87.7,223l-17.18,8.29A.59.59,0,0,1,70.3,231.32Z"/><path class="cls-2" d="M103.31,87.32A183.09,183.09,0,0,1,162.24,97l15.06,5.11v115l-13.55-3.39A113.42,113.42,0,0,0,87,221.63L71.3,229.22V89.7l12.47-1.34a184.79,184.79,0,0,1,19.54-1h0m0-3a186,186,0,0,0-19.86,1.06L70.09,86.81a2,2,0,0,0-1.79,2v142a2,2,0,0,0,2,2,2.12,2.12,0,0,0,.87-.2l17.18-8.29A110.41,110.41,0,0,1,163,216.68l14.79,3.7a2.12,2.12,0,0,0,.49.06,2,2,0,0,0,2-2V100l-17.1-5.8a186.34,186.34,0,0,0-59.89-9.88Z"/><path class="cls-3" d="M178.29,217.82a.42.42,0,0,1-.26-.08L167.56,211l-.08,0A112.44,112.44,0,0,0,102.29,200l-9.49,1.27V82.79a.51.51,0,0,1,.45-.5l13.82-1.53a101.13,101.13,0,0,1,11.28-.63,102.76,102.76,0,0,1,43.94,9.94l16.51,9.78V217.32A.5.5,0,0,1,178.29,217.82Z"/><path class="cls-2" d="M118.35,81.63a101.33,101.33,0,0,1,43.23,9.76l15.72,9.32V215.48l-8.86-5.74-.14-.09-.15-.08a114,114,0,0,0-66.06-11l-7.79,1V83.69l12.93-1.44a100.8,100.8,0,0,1,11.12-.62m0-3a102.05,102.05,0,0,0-11.45.64L93.08,80.8a2,2,0,0,0-1.78,2V203l11.19-1.49a110.8,110.8,0,0,1,64.32,10.75l10.4,6.74a2,2,0,0,0,3.09-1.68V99L163,88.74a103.76,103.76,0,0,0-44.65-10.11Z"/><path class="cls-3" d="M180,217.59a.49.49,0,0,1-.36-.15.45.45,0,0,1-.15-.35V99.81L196.06,89A102.82,102.82,0,0,1,240,79.13a101.44,101.44,0,0,1,11.29.63l13.81,1.53a.51.51,0,0,1,.45.5V199.72a.5.5,0,0,1-.5.5l-9-1.2a112.37,112.37,0,0,0-65.11,10.86,1.51,1.51,0,0,0-.37.22l-10.24,7.39A.44.44,0,0,1,180,217.59Z"/><path class="cls-2" d="M240,77.63v3h0a100.76,100.76,0,0,1,11.11.62L264,82.69V198.57l-7.79-1a114,114,0,0,0-66,11,4.15,4.15,0,0,0-.57.35L181,215.13V100.63l15.77-10.27A101.4,101.4,0,0,1,240,80.63v-3m0,0a103.75,103.75,0,0,0-44.58,10.08l-.13.07L178.45,98.7a1,1,0,0,0-.45.84V217.09a2,2,0,0,0,3.17,1.62l10.25-7.4a.38.38,0,0,1,.15-.09,110.8,110.8,0,0,1,64.24-10.71l8.93,1.19.26,0a2,2,0,0,0,2-2V81.79a2,2,0,0,0-1.78-2L251.4,78.27A102.05,102.05,0,0,0,240,77.63Z"/><path class="cls-2" d="M160.06,117.2c-3.83-1.75-7.66-3.52-11.5-5.26A67.78,67.78,0,0,0,120.2,106h-7.9a1.5,1.5,0,0,0,0,3c5.84,0,11.75-.24,17.55.55a61.5,61.5,0,0,1,16.14,4.5c2,.87,3.93,1.8,5.9,2.7l6.65,3c1.75.79,3.27-1.79,1.52-2.6Z"/><path class="cls-2" d="M160.06,137.87l-11.5-5.27a67.77,67.77,0,0,0-28.36-5.93h-7.9a1.5,1.5,0,0,0,0,3c5.84,0,11.75-.25,17.55.55a61.12,61.12,0,0,1,16.14,4.5c2,.86,3.93,1.79,5.9,2.69l6.65,3.05c1.75.8,3.27-1.78,1.52-2.59Z"/><path class="cls-2" d="M160.06,158.54l-11.5-5.27a67.78,67.78,0,0,0-28.36-5.94h-7.9a1.5,1.5,0,0,0,0,3c5.84,0,11.75-.24,17.55.55A61.52,61.52,0,0,1,146,155.39c2,.86,3.93,1.79,5.9,2.69l6.65,3c1.75.8,3.27-1.79,1.52-2.59Z"/><path class="cls-2" d="M160.06,179.2c-3.83-1.75-7.66-3.52-11.5-5.26A67.78,67.78,0,0,0,120.2,168h-7.9a1.5,1.5,0,0,0,0,3c5.84,0,11.75-.24,17.55.55a61.5,61.5,0,0,1,16.14,4.5c2,.87,3.93,1.8,5.9,2.7l6.65,3.05c1.75.79,3.27-1.79,1.52-2.6Z"/><path class="cls-2" d="M199.76,119.8l11.47-5.27a64.52,64.52,0,0,1,27-5.53H246a1.5,1.5,0,0,0,0-3c-6,0-12-.21-17.89.6a64.34,64.34,0,0,0-16.68,4.59c-2.16.92-4.29,1.94-6.42,2.91l-6.77,3.1c-1.75.81-.23,3.39,1.52,2.6Z"/><path class="cls-2" d="M199.76,140.46l11.47-5.26a64.52,64.52,0,0,1,27-5.53H246a1.5,1.5,0,0,0,0-3c-6,0-12-.21-17.89.59a64.76,64.76,0,0,0-16.68,4.6c-2.16.92-4.29,1.93-6.42,2.91l-6.77,3.1c-1.75.8-.23,3.39,1.52,2.59Z"/><path class="cls-2" d="M199.76,161.13c3.82-1.75,7.64-3.52,11.47-5.26a64.37,64.37,0,0,1,27-5.54H246a1.5,1.5,0,0,0,0-3c-6,0-12-.2-17.89.6a64.74,64.74,0,0,0-16.68,4.59c-2.16.92-4.29,1.94-6.42,2.92l-6.77,3.1c-1.75.8-.23,3.39,1.52,2.59Z"/><path class="cls-2" d="M199.76,181.8l11.47-5.27a64.52,64.52,0,0,1,27-5.53H246a1.5,1.5,0,0,0,0-3c-6,0-12-.21-17.89.6a64.34,64.34,0,0,0-16.68,4.59c-2.16.92-4.29,1.94-6.42,2.91l-6.77,3.1c-1.75.81-.23,3.39,1.52,2.6Z"/></svg>