<svg id="Layer_1" data-name="Layer 1" xmlns="http://www.w3.org/2000/svg" viewBox="0 0 367 327"><defs><style>.cls-1{fill:#00a99d;stroke:#00a99d;stroke-miterlimit:10;stroke-width:11px;}</style></defs><g id="Kx9JpN.tif"><path class="cls-1" d="M151.38,74.51a3.11,3.11,0,0,1,3,2.24c3.31,10.88,12.32,16.22,20.88,16.44s18.65-4.37,22.39-16.46a3.13,3.13,0,0,1,3-2.22h0c10.66,0,21.33,0,32,0a4.76,4.76,0,0,1,3.06,1.09c13,12.88,37.93,37.79,42.42,42.29a1,1,0,0,1,0,1.41L258.3,139.06a1,1,0,0,1-1.39,0c-.28-.26-.58-.54-.88-.84-5.4-5.44-10.82-10.86-16.19-16.33-1.57-1.6-3.24-2.69-5.52-1.75s-2,3-2.07,4.92c0,.75,0,1.5,0,2.25v137a1,1,0,0,1-1,1H120.76a1,1,0,0,1-1-1v-137c0-.75,0-1.5,0-2.25-.06-1.91.14-4-2.07-4.93s-4,.13-5.53,1.75c-2.94,3.07-6,6.06-9,9.06-2.71,2.7-5.45,5.36-8.07,7.93a1,1,0,0,1-1.4,0l-19.5-19.5a1,1,0,0,1,0-1.41c10.73-10.83,21.62-21.84,32.53-32.84,3.11-3.14,6.23-6.27,9.4-9.34a4,4,0,0,1,2.27-1.24C129.36,74.49,140.31,74.51,151.38,74.51Z"/></g></svg>