<svg id="Layer_1" data-name="Layer 1" xmlns="http://www.w3.org/2000/svg" viewBox="0 0 367 327"><defs><style>.cls-1{fill:#ededed;}.cls-2{fill:#ffaf78;}.cls-3{fill:#d6d6d6;}.cls-4{fill:#ffa05f;}.cls-5{fill:#c1c1c1;}.cls-6{fill:#a1d7ff;}.cls-7{fill:#648e64;}.cls-8{fill:#6c966c;}</style></defs><rect class="cls-1" x="66" y="132" width="220" height="132"/><path class="cls-1" d="M91.15,52H260.85A10.15,10.15,0,0,1,271,62.15V68a0,0,0,0,1,0,0H81a0,0,0,0,1,0,0V62.15A10.15,10.15,0,0,1,91.15,52Z"/><path class="cls-2" d="M99,165H88a22,22,0,0,1-22-22V100h55v43A22,22,0,0,1,99,165Z"/><path class="cls-3" d="M121,100h55a0,0,0,0,1,0,0v43a22,22,0,0,1-22,22H143a22,22,0,0,1-22-22V100A0,0,0,0,1,121,100Z"/><path class="cls-2" d="M209,165H198a22,22,0,0,1-22-22V100h55v43A22,22,0,0,1,209,165Z"/><path class="cls-3" d="M231,100h55a0,0,0,0,1,0,0v43a22,22,0,0,1-22,22H253a22,22,0,0,1-22-22V100A0,0,0,0,1,231,100Z"/><polygon class="cls-4" points="121 100 66 100 81 68 132 68 121 100"/><polygon class="cls-5" points="176 100 121 100 132 68 176 68 176 100"/><polygon class="cls-5" points="231.08 100 286.08 100 271.08 68 220.08 68 231.08 100"/><polygon class="cls-4" points="176 100 231 100 220 68 176 68 176 100"/><path class="cls-4" d="M176,195H89v-8a5,5,0,0,1,5-5h77a5,5,0,0,1,5,5Z"/><path class="cls-4" d="M209,182h31a5,5,0,0,1,5,5v8a0,0,0,0,1,0,0H204a0,0,0,0,1,0,0v-8A5,5,0,0,1,209,182Z"/><rect class="cls-6" x="89" y="195" width="87" height="46"/><rect class="cls-7" x="204" y="195" width="41" height="69"/><rect class="cls-8" x="211" y="205.5" width="27" height="48"/></svg>